# xmcd
#
# Track frame offsets:
#	150
#	23519
#	46844
#	69459
#	83514
#	108901
#	135827
#	157409
#	170832
#	185417
#	206686
#	220085
#	234125
#	255122
#	272269
#	291958
#	310805
#	335007
#
# Disc length: 4766 seconds
#
# Revision: 1
# Processed by: cddbd v1.4PL0 Copyright (c) Steve Scherf et al.
# Submitted via: EasyCDDAExtractor 6.0.0.1
#
DISCID=ee129c12
DTITLE=Various Artist - Bakinin Ulduzlari 5
DYEAR=2003
DGENRE=Azeri
TTITLE0=Aygun Kazimova - Eceb yarashiriq
TTITLE1=Tunzale Agayeva - Sen o deyilsen
TTITLE2=Edalet - Belali sevgilim
TTITLE3=Elariz - Sevirem
TTITLE4=Brilyant Dadashova - Seninleyem
TTITLE5=Aygun Humbetova - Orpeyini bagla
TTITLE6=Faiq Agayev - Leman
TTITLE7=Tunzale Agayeva - Igidler
TTITLE8=Nise Qasimova - Shahane sevgi
TTITLE9=Manana - Bakili qaqash
TTITLE10=Ashiqlar - Sensiz
TTITLE11=Aybeniz H. - Popuri
TTITLE12=Ilqar Sahil - Bilmedim
TTITLE13=Lale Memmedova - Ses
TTITLE14=Ilahe Feda - Ayriliq
TTITLE15=B. Abbas - Cennetdir baki
TTITLE16=Vasif Meherremli - Bakili qiz
TTITLE17=Cemile - De unuda bilersenmi
EXTD=
EXTT0=
EXTT1=
EXTT2=
EXTT3=
EXTT4=
EXTT5=
EXTT6=
EXTT7=
EXTT8=
EXTT9=
EXTT10=
EXTT11=
EXTT12=
EXTT13=
EXTT14=
EXTT15=
EXTT16=
EXTT17=
PLAYORDER=
